<svg width="109" height="25" viewBox="0 0 109 25" fill="none" xmlns="http://www.w3.org/2000/svg">
<path d="M15.8116 2.196V4.564H9.73163V24.5H6.81963V4.564H0.707629V2.196H15.8116ZM27.0441 24.788C25.4015 24.788 23.9081 24.4147 22.5641 23.668C21.2415 22.9213 20.1961 21.8653 19.4281 20.5C18.6815 19.1133 18.3081 17.5133 18.3081 15.7C18.3081 13.908 18.6921 12.3293 19.4601 10.964C20.2495 9.57733 21.3161 8.52133 22.6601 7.796C24.0041 7.04933 25.5081 6.676 27.1721 6.676C28.8361 6.676 30.3401 7.04933 31.6841 7.796C33.0281 8.52133 34.0841 9.56667 34.8521 10.932C35.6415 12.2973 36.0361 13.8867 36.0361 15.7C36.0361 17.5133 35.6308 19.1133 34.8201 20.5C34.0308 21.8653 32.9535 22.9213 31.5881 23.668C30.2228 24.4147 28.7081 24.788 27.0441 24.788ZM27.0441 22.228C28.0895 22.228 29.0708 21.9827 29.9881 21.492C30.9055 21.0013 31.6415 20.2653 32.1961 19.284C32.7721 18.3027 33.0601 17.108 33.0601 15.7C33.0601 14.292 32.7828 13.0973 32.2281 12.116C31.6735 11.1347 30.9481 10.4093 30.0521 9.94C29.1561 9.44933 28.1855 9.204 27.1401 9.204C26.0735 9.204 25.0921 9.44933 24.1961 9.94C23.3215 10.4093 22.6175 11.1347 22.0841 12.116C21.5508 13.0973 21.2841 14.292 21.2841 15.7C21.2841 17.1293 21.5401 18.3347 22.0521 19.316C22.5855 20.2973 23.2895 21.0333 24.1641 21.524C25.0388 21.9933 25.9988 22.228 27.0441 22.228ZM42.7769 0.82V24.5H39.8649V0.82H42.7769ZM63.7399 15.06C63.7399 15.6147 63.7079 16.2013 63.6439 16.82H49.6279C49.7345 18.548 50.3212 19.9027 51.3879 20.884C52.4759 21.844 53.7879 22.324 55.3239 22.324C56.5825 22.324 57.6279 22.036 58.4599 21.46C59.3132 20.8627 59.9105 20.0733 60.2519 19.092H63.3879C62.9185 20.7773 61.9799 22.1533 60.5719 23.22C59.1639 24.2653 57.4145 24.788 55.3239 24.788C53.6599 24.788 52.1665 24.4147 50.8439 23.668C49.5425 22.9213 48.5185 21.8653 47.7719 20.5C47.0252 19.1133 46.6519 17.5133 46.6519 15.7C46.6519 13.8867 47.0145 12.2973 47.7399 10.932C48.4652 9.56667 49.4785 8.52133 50.7799 7.796C52.1025 7.04933 53.6172 6.676 55.3239 6.676C56.9879 6.676 58.4599 7.03867 59.7399 7.764C61.0199 8.48933 62.0012 9.492 62.6839 10.772C63.3879 12.0307 63.7399 13.46 63.7399 15.06ZM60.7319 14.452C60.7319 13.3427 60.4865 12.3933 59.9959 11.604C59.5052 10.7933 58.8332 10.1853 57.9799 9.78C57.1479 9.35333 56.2199 9.14 55.1959 9.14C53.7239 9.14 52.4652 9.60933 51.4199 10.548C50.3959 11.4867 49.8092 12.788 49.6599 14.452H60.7319ZM70.4956 9.812C71.0076 8.80933 71.733 8.03067 72.6716 7.476C73.6316 6.92133 74.7943 6.644 76.1596 6.644V9.652H75.3916C72.1276 9.652 70.4956 11.4227 70.4956 14.964V24.5H67.5836V6.964H70.4956V9.812ZM82.4331 9.812C82.9451 8.80933 83.6705 8.03067 84.6091 7.476C85.5691 6.92133 86.7318 6.644 88.0971 6.644V9.652H87.3291C84.0651 9.652 82.4331 11.4227 82.4331 14.964V24.5H79.5211V6.964H82.4331V9.812ZM90.3706 15.668C90.3706 13.876 90.7333 12.308 91.4586 10.964C92.184 9.59867 93.176 8.54267 94.4346 7.796C95.7146 7.04933 97.1333 6.676 98.6906 6.676C100.227 6.676 101.56 7.00667 102.691 7.668C103.821 8.32933 104.664 9.16133 105.219 10.164V6.964H108.163V24.5H105.219V21.236C104.643 22.26 103.779 23.1133 102.627 23.796C101.496 24.4573 100.173 24.788 98.6586 24.788C97.1013 24.788 95.6933 24.404 94.4346 23.636C93.176 22.868 92.184 21.7907 91.4586 20.404C90.7333 19.0173 90.3706 17.4387 90.3706 15.668ZM105.219 15.7C105.219 14.3773 104.952 13.2253 104.419 12.244C103.885 11.2627 103.16 10.516 102.243 10.004C101.347 9.47067 100.355 9.204 99.2666 9.204C98.1786 9.204 97.1866 9.46 96.2906 9.972C95.3946 10.484 94.68 11.2307 94.1466 12.212C93.6133 13.1933 93.3466 14.3453 93.3466 15.668C93.3466 17.012 93.6133 18.1853 94.1466 19.188C94.68 20.1693 95.3946 20.9267 96.2906 21.46C97.1866 21.972 98.1786 22.228 99.2666 22.228C100.355 22.228 101.347 21.972 102.243 21.46C103.16 20.9267 103.885 20.1693 104.419 19.188C104.952 18.1853 105.219 17.0227 105.219 15.7Z" fill="#071952"/>
</svg>
