<svg width="37" height="51" viewBox="0 0 37 51" fill="none" xmlns="http://www.w3.org/2000/svg">
<path fill-rule="evenodd" clip-rule="evenodd" d="M17.7743 1.30137C17.7743 0.683767 18.2654 0.183105 18.8712 0.183105C19.4771 0.183105 19.9681 0.683767 19.9681 1.30137V3.61121C19.9681 4.22882 19.4771 4.72947 18.8712 4.72947C18.2654 4.72947 17.7743 4.22882 17.7743 3.61121V1.30137ZM18.9252 14.9221C21.1101 14.9221 22.8812 13.1165 22.8812 10.8891C22.8812 8.66168 21.1101 6.856 18.9252 6.856C16.7403 6.856 14.9691 8.66168 14.9691 10.8891C14.9691 13.1165 16.7403 14.9221 18.9252 14.9221ZM20.094 24.6198V27.168C21.4786 26.1231 24.5751 23.9819 25.8842 23.7766C26.6275 23.3305 28.1787 21.705 28.4377 18.7719H31.0091C31.0331 20.709 30.4013 24.9095 27.6824 26.2147C25.1709 27.2902 19.8602 29.9435 18.7094 31.9527C17.3248 30.5533 13.7032 27.5053 10.2938 26.5081C8.9092 26.1597 6.16514 24.1065 6.26584 18.6802H8.94516C8.86726 20.2446 9.56374 23.5932 12.9731 24.4732C14.2199 25.1698 16.8069 26.684 17.1809 27.168V22.4017C17.085 21.6378 16.2962 19.8242 13.9082 18.6802C12.7873 17.9958 10.5887 16.0074 10.7613 13.5289C10.9232 12.7895 10.9052 11.1457 9.53857 10.4858C9.25086 10.1986 8.79052 9.42617 9.25086 8.63422C9.55058 8.37757 10.301 7.95226 10.9052 8.30424C11.8403 8.79921 13.696 10.2364 13.6385 12.0257C13.4647 13.2173 13.732 15.8241 16.1919 16.7187C16.9292 17.2137 18.4325 18.3649 18.5476 19.0102C19.0451 18.4297 20.2163 17.2137 20.9212 16.9937L29.6784 12.7223C30.1699 12.6428 31.2105 12.638 31.4407 13.2539C31.6445 13.6694 31.8147 14.6655 30.8652 15.3254L22.2519 19.5602C21.5326 19.9207 20.094 21.1514 20.094 23.1899V24.6198ZM12.3426 2.59794C11.8666 2.9799 11.7844 3.68297 12.1591 4.16829L13.5603 5.98339C13.935 6.46868 14.6246 6.55246 15.1007 6.17049C15.5767 5.78856 15.6589 5.08548 15.2842 4.60016L13.883 2.78506C13.5083 2.29975 12.8186 2.21597 12.3426 2.59794ZM23.9502 2.64667C24.3436 2.17704 25.036 2.12148 25.4967 2.52258C25.9573 2.92367 26.0118 3.62953 25.6184 4.09914L24.1469 5.85558C23.7535 6.32521 23.0611 6.3808 22.6005 5.97969C22.1398 5.57858 22.0853 4.87272 22.4788 4.40309L23.9502 2.64667ZM29.2152 7.68546C28.9196 7.14635 28.2513 6.95364 27.7225 7.25498L25.7448 8.38208C25.216 8.68342 25.0269 9.36472 25.3225 9.90383C25.6181 10.4429 26.2864 10.6356 26.8152 10.3343L28.7929 9.20721C29.3217 8.90583 29.5108 8.22453 29.2152 7.68546ZM15.3288 50.8165V49.8999C16.9544 44.0776 23.4387 40.8375 26.4776 39.9455C28.2471 39.6375 30.6674 36.8228 31.6565 35.4541C32.0736 34.7502 31.6625 33.9876 31.4047 33.6942C30.6279 33.1076 29.8343 33.5231 29.5346 33.8042L28.2399 35.3625C27.8227 36.6677 24.086 37.9719 22.2698 38.4606C17.4075 39.8978 14.0461 44.5469 12.9731 46.6917C12.3977 45.4598 7.98615 43.5998 5.85226 42.8237C2.19832 41.4744 0.961155 38.3506 0.799316 36.9574V23.8316C0.799316 23.5529 0.967148 23.4466 1.05106 23.4283H4.0181V27.2597C15.1238 30.6035 18.4517 35.4603 18.7274 37.4707C19.5905 32.3817 28.8093 28.5796 33.3108 27.3147V23.4283H36.152C36.3965 23.4283 36.4337 23.6238 36.4217 23.7216V35.3625C36.4648 39.4689 34.138 41.6075 32.9691 42.1637C32.0628 42.5303 28.6355 43.9786 27.0351 44.6569C23.6976 45.9914 22.3718 49.3195 22.126 50.8165H15.3288ZM8.56754 34.8125L10.0241 36.5174C10.7973 36.8474 12.4337 37.753 12.7933 38.7356C13.087 39.1818 13.6744 40.4075 13.6744 41.7421C13.0391 41.1617 11.531 39.9565 10.5815 39.7805C9.66444 39.3651 7.6037 38.204 6.69741 36.884L5.54656 35.4175C5.42069 35.0142 5.28762 34.1196 5.76235 33.7676C6.08005 33.5415 6.87004 33.1809 7.48862 33.5476L8.56754 34.8125Z" fill="#071952"/>
<mask id="mask0_261_1241" style="mask-type:luminance" maskUnits="userSpaceOnUse" x="0" y="0" width="37" height="51">
<path d="M36.6196 0H0.619629V51H36.6196V0Z" fill="white"/>
<path fill-rule="evenodd" clip-rule="evenodd" d="M17.7743 1.30137C17.7743 0.683767 18.2654 0.183105 18.8712 0.183105C19.4771 0.183105 19.9681 0.683767 19.9681 1.30137V3.61121C19.9681 4.22882 19.4771 4.72947 18.8712 4.72947C18.2654 4.72947 17.7743 4.22882 17.7743 3.61121V1.30137ZM18.9252 14.9221C21.1101 14.9221 22.8812 13.1165 22.8812 10.8891C22.8812 8.66168 21.1101 6.856 18.9252 6.856C16.7403 6.856 14.9691 8.66168 14.9691 10.8891C14.9691 13.1165 16.7403 14.9221 18.9252 14.9221ZM20.094 24.6198V27.168C21.4786 26.1231 24.5751 23.9819 25.8842 23.7766C26.6275 23.3305 28.1787 21.705 28.4377 18.7719H31.0091C31.0331 20.709 30.4013 24.9095 27.6824 26.2147C25.1709 27.2902 19.8602 29.9435 18.7094 31.9527C17.3248 30.5533 13.7032 27.5053 10.2938 26.5081C8.9092 26.1597 6.16514 24.1065 6.26584 18.6802H8.94516C8.86726 20.2446 9.56374 23.5932 12.9731 24.4732C14.2199 25.1698 16.8069 26.684 17.1809 27.168V22.4017C17.085 21.6378 16.2962 19.8242 13.9082 18.6802C12.7873 17.9958 10.5887 16.0074 10.7613 13.5289C10.9232 12.7895 10.9052 11.1457 9.53857 10.4858C9.25086 10.1986 8.79052 9.42617 9.25086 8.63422C9.55058 8.37757 10.301 7.95226 10.9052 8.30424C11.8403 8.79921 13.696 10.2364 13.6385 12.0257C13.4647 13.2173 13.732 15.8241 16.1919 16.7187C16.9292 17.2137 18.4325 18.3649 18.5476 19.0102C19.0451 18.4297 20.2163 17.2137 20.9212 16.9937L29.6784 12.7223C30.1699 12.6428 31.2105 12.638 31.4407 13.2539C31.6445 13.6694 31.8147 14.6655 30.8652 15.3254L22.2519 19.5602C21.5326 19.9207 20.094 21.1514 20.094 23.1899V24.6198ZM12.3426 2.59794C11.8666 2.9799 11.7844 3.68297 12.1591 4.16829L13.5603 5.98339C13.935 6.46868 14.6246 6.55246 15.1007 6.17049C15.5767 5.78856 15.6589 5.08548 15.2842 4.60016L13.883 2.78506C13.5083 2.29975 12.8186 2.21597 12.3426 2.59794ZM23.9502 2.64667C24.3436 2.17704 25.036 2.12148 25.4967 2.52258C25.9573 2.92367 26.0118 3.62953 25.6184 4.09914L24.1469 5.85558C23.7535 6.32521 23.0611 6.3808 22.6005 5.97969C22.1398 5.57858 22.0853 4.87272 22.4788 4.40309L23.9502 2.64667ZM29.2152 7.68546C28.9196 7.14635 28.2513 6.95364 27.7225 7.25498L25.7448 8.38208C25.216 8.68342 25.0269 9.36472 25.3225 9.90383C25.6181 10.4429 26.2864 10.6356 26.8152 10.3343L28.7929 9.20721C29.3217 8.90583 29.5108 8.22453 29.2152 7.68546ZM15.3288 50.8165V49.8999C16.9544 44.0776 23.4387 40.8375 26.4776 39.9455C28.2471 39.6375 30.6674 36.8228 31.6565 35.4541C32.0736 34.7502 31.6625 33.9876 31.4047 33.6942C30.6279 33.1076 29.8343 33.5231 29.5346 33.8042L28.2399 35.3625C27.8227 36.6677 24.086 37.9719 22.2698 38.4606C17.4075 39.8978 14.0461 44.5469 12.9731 46.6917C12.3977 45.4598 7.98615 43.5998 5.85226 42.8237C2.19832 41.4744 0.961155 38.3506 0.799316 36.9574V23.8316C0.799316 23.5529 0.967148 23.4466 1.05106 23.4283H4.0181V27.2597C15.1238 30.6035 18.4517 35.4603 18.7274 37.4707C19.5905 32.3817 28.8093 28.5796 33.3108 27.3147V23.4283H36.152C36.3965 23.4283 36.4337 23.6238 36.4217 23.7216V35.3625C36.4648 39.4689 34.138 41.6075 32.9691 42.1637C32.0628 42.5303 28.6355 43.9786 27.0351 44.6569C23.6976 45.9914 22.3718 49.3195 22.126 50.8165H15.3288ZM8.56754 34.8125L10.0241 36.5174C10.7973 36.8474 12.4337 37.753 12.7933 38.7356C13.087 39.1818 13.6744 40.4075 13.6744 41.7421C13.0391 41.1617 11.531 39.9565 10.5815 39.7805C9.66444 39.3651 7.6037 38.204 6.69741 36.884L5.54656 35.4175C5.42069 35.0142 5.28762 34.1196 5.76235 33.7676C6.08005 33.5415 6.87004 33.1809 7.48862 33.5476L8.56754 34.8125Z" fill="black"/>
</mask>
<g mask="url(#mask0_261_1241)">
<path d="M20.0941 27.1682H19.9143V27.532L20.2011 27.3156L20.0941 27.1682ZM25.8844 23.7768L25.9117 23.958L25.9458 23.9526L25.9756 23.9348L25.8844 23.7768ZM28.4378 18.7721V18.5888H28.2734L28.2587 18.7557L28.4378 18.7721ZM31.0092 18.7721L31.1891 18.7698L31.1868 18.5888H31.0092V18.7721ZM27.6826 26.215L27.7522 26.384L27.7557 26.3825L27.7592 26.3808L27.6826 26.215ZM18.7095 31.9529L18.5829 32.0831L18.7478 32.2497L18.8648 32.0453L18.7095 31.9529ZM10.2939 26.5083L10.3435 26.3321L10.3403 26.3311L10.337 26.3303L10.2939 26.5083ZM6.26598 18.6804V18.4971H6.08954L6.08619 18.677L6.26598 18.6804ZM8.9453 18.6804L9.1249 18.6898L9.1345 18.4971H8.9453V18.6804ZM12.9733 24.4734L13.0597 24.3126L13.0396 24.3014L13.0174 24.2957L12.9733 24.4734ZM17.1811 27.1682L17.0398 27.2817L17.3609 27.6971V27.1682H17.1811ZM17.1811 22.4019H17.3609V22.3902L17.3594 22.3786L17.1811 22.4019ZM13.9083 18.6804L13.8159 18.8377L13.8237 18.8424L13.8319 18.8464L13.9083 18.6804ZM10.7615 13.5291L10.586 13.4892L10.5831 13.5025L10.5821 13.5161L10.7615 13.5291ZM9.5387 10.486L9.4129 10.617L9.43448 10.6385L9.46174 10.6517L9.5387 10.486ZM9.25099 8.63444L9.13533 8.49405L9.11192 8.51414L9.09631 8.54098L9.25099 8.63444ZM10.9053 8.30446L10.8161 8.46362L10.8193 8.46545L10.8225 8.46714L10.9053 8.30446ZM13.6386 12.0259L13.8165 12.0528L13.818 12.0424L13.8184 12.0319L13.6386 12.0259ZM16.1921 16.7189L16.291 16.5658L16.2729 16.5537L16.2525 16.5463L16.1921 16.7189ZM18.5477 19.0104L18.3708 19.0432L18.4375 19.4176L18.6831 19.131L18.5477 19.0104ZM20.9213 16.9939L20.974 17.1692L20.9868 17.1652L20.9989 17.1592L20.9213 16.9939ZM29.6786 12.7225L29.6504 12.5415L29.6246 12.5456L29.601 12.5571L29.6786 12.7225ZM31.4408 13.2541L31.2728 13.3194L31.276 13.3279L31.28 13.3361L31.4408 13.2541ZM30.8654 15.3257L30.9435 15.4908L30.9556 15.4848L30.9667 15.4771L30.8654 15.3257ZM22.252 19.5604L22.1739 19.3953L22.1733 19.3956L22.1727 19.3959L22.252 19.5604ZM15.3289 49.9001L15.156 49.8498L15.1491 49.8744V49.9001H15.3289ZM15.3289 50.8167H15.1491V51H15.3289V50.8167ZM26.4778 39.9457L26.4475 39.765L26.4376 39.7668L26.428 39.7697L26.4778 39.9457ZM31.6566 35.4543L31.8014 35.5631L31.8063 35.5563L31.8105 35.5492L31.6566 35.4543ZM31.4048 33.6945L31.5388 33.5722L31.5266 33.5583L31.5119 33.5471L31.4048 33.6945ZM29.5347 33.8045L29.413 33.6695L29.4047 33.6773L29.3975 33.686L29.5347 33.8045ZM28.24 35.3627L28.1028 35.2442L28.08 35.2717L28.069 35.3059L28.24 35.3627ZM22.27 38.4608L22.2241 38.2837L22.222 38.2841L22.2199 38.2848L22.27 38.4608ZM12.9733 46.6919L12.8109 46.7708L12.9678 47.1066L13.1335 46.7752L12.9733 46.6919ZM5.85239 42.8239L5.79114 42.9962L5.79157 42.9966H5.79197L5.85239 42.8239ZM0.799449 36.9576H0.619629V36.9686L0.620877 36.9792L0.799449 36.9576ZM1.0512 23.4285V23.2451H1.03215L1.01352 23.2492L1.0512 23.4285ZM4.01823 23.4285H4.19805V23.2451H4.01823V23.4285ZM4.01823 27.2599H3.83841V27.3969L3.9673 27.4357L4.01823 27.2599ZM18.7275 37.4709L18.5494 37.4962L18.9047 37.502L18.7275 37.4709ZM33.3109 27.3149L33.3587 27.4916L33.4908 27.4545V27.3149H33.3109ZM33.3109 23.4285V23.2451H33.1311V23.4285H33.3109ZM36.4218 23.7218L36.2434 23.6991L36.242 23.7104V23.7218H36.4218ZM36.4218 35.3627H36.242V35.3637V35.3647L36.4218 35.3627ZM32.9693 42.1639L33.0356 42.3344L33.0405 42.3322L33.0453 42.33L32.9693 42.1639ZM27.0352 44.6571L27.1009 44.8276L27.1026 44.8272L27.1043 44.8265L27.0352 44.6571ZM22.1261 50.8167V51H22.2784L22.3035 50.8471L22.1261 50.8167ZM10.0242 36.5176L9.88863 36.638L9.91615 36.6701L9.95477 36.6866L10.0242 36.5176ZM8.56767 34.8127L8.43198 34.933L8.43209 34.9331L8.56767 34.8127ZM12.7934 38.7358L12.625 38.8L12.6324 38.8201L12.6442 38.8381L12.7934 38.7358ZM13.6746 41.7423L13.5546 41.8787L13.8544 42.1529V41.7423H13.6746ZM10.5817 39.7807L10.5086 39.9483L10.5283 39.9571L10.5495 39.9611L10.5817 39.7807ZM6.69754 36.8843L6.84485 36.779L6.84158 36.7743L6.83798 36.7699L6.69754 36.8843ZM5.5467 35.4177L5.37536 35.4733L5.38547 35.5057L5.40629 35.5322L5.5467 35.4177ZM5.76248 33.7678L5.65955 33.6175L5.65811 33.6185L5.65671 33.6195L5.76248 33.7678ZM7.48875 33.5478L7.62445 33.4275L7.60492 33.4046L7.57913 33.3893L7.48875 33.5478ZM18.8714 0C18.1663 0 17.5946 0.582738 17.5946 1.30158H17.9543C17.9543 0.785228 18.3649 0.366643 18.8714 0.366643V0ZM20.1481 1.30158C20.1481 0.582738 19.5765 0 18.8714 0V0.366643C19.3779 0.366643 19.7885 0.785228 19.7885 1.30158H20.1481ZM20.1481 3.61143V1.30158H19.7885V3.61143H20.1481ZM18.8714 4.91301C19.5765 4.91301 20.1481 4.33027 20.1481 3.61143H19.7885C19.7885 4.12777 19.3779 4.54637 18.8714 4.54637V4.91301ZM17.5946 3.61143C17.5946 4.33027 18.1663 4.91301 18.8714 4.91301V4.54637C18.3649 4.54637 17.9543 4.12777 17.9543 3.61143H17.5946ZM17.5946 1.30158V3.61143H17.9543V1.30158H17.5946ZM22.7015 10.8893C22.7015 13.0154 21.0109 14.739 18.9253 14.739V15.1057C21.2095 15.1057 23.0612 13.2179 23.0612 10.8893H22.7015ZM18.9253 7.03954C21.0109 7.03954 22.7015 8.76313 22.7015 10.8893H23.0612C23.0612 8.56063 21.2095 6.6729 18.9253 6.6729V7.03954ZM15.1491 10.8893C15.1491 8.76313 16.8398 7.03954 18.9253 7.03954V6.6729C16.6411 6.6729 14.7895 8.56063 14.7895 10.8893H15.1491ZM18.9253 14.739C16.8398 14.739 15.1491 13.0154 15.1491 10.8893H14.7895C14.7895 13.2179 16.6411 15.1057 18.9253 15.1057V14.739ZM20.274 27.1682V24.6201H19.9143V27.1682H20.274ZM25.857 23.5956C25.5017 23.6513 25.0424 23.8341 24.5434 24.0815C24.0404 24.3309 23.482 24.6537 22.9239 25.0012C21.8075 25.6962 20.6827 26.4959 19.9872 27.0209L20.2011 27.3156C20.8902 26.7956 22.006 26.0022 23.1113 25.3141C23.664 24.97 24.2117 24.6537 24.7007 24.4112C25.1938 24.1668 25.6125 24.0049 25.9117 23.958L25.857 23.5956ZM28.2587 18.7557C28.0049 21.6303 26.4861 23.2029 25.7931 23.6188L25.9756 23.9348C26.7691 23.4585 28.3528 21.7802 28.6169 18.7885L28.2587 18.7557ZM31.0092 18.5888H28.4378V18.9554H31.0092V18.5888ZM27.7592 26.3808C29.1822 25.6977 30.0427 24.2661 30.5444 22.7905C31.0472 21.3116 31.2012 19.7555 31.1891 18.7698L30.8294 18.7744C30.8412 19.7258 30.6914 21.2385 30.2046 22.6704C29.7166 24.1057 28.9018 25.427 27.606 26.0491L27.7592 26.3808ZM18.8648 32.0453C19.1345 31.5745 19.6595 31.0495 20.3536 30.5053C21.0439 29.9639 21.8867 29.4148 22.7756 28.8926C24.5531 27.8483 26.5017 26.9195 27.7522 26.384L27.6129 26.0459C26.3519 26.5859 24.3894 27.5214 22.596 28.575C21.6994 29.1017 20.8418 29.6598 20.1343 30.2147C19.4304 30.7666 18.86 31.3267 18.5542 31.8605L18.8648 32.0453ZM10.2444 26.6845C11.9222 27.1753 13.6614 28.1741 15.1587 29.2306C16.6546 30.2859 17.898 31.3909 18.5829 32.0831L18.8361 31.8227C18.1364 31.1156 16.8768 29.9968 15.3634 28.9291C13.8514 27.8623 12.0751 26.8385 10.3435 26.3321L10.2444 26.6845ZM6.08619 18.677C5.98416 24.1744 8.77166 26.3141 10.2509 26.6862L10.337 26.3303C9.047 26.0058 6.34639 24.0391 6.44576 18.6839L6.08619 18.677ZM8.9453 18.4971H6.26598V18.8638H8.9453V18.4971ZM13.0174 24.2957C11.3691 23.8703 10.381 22.8517 9.81063 21.7481C9.23729 20.6388 9.08732 19.4441 9.1249 18.6898L8.76573 18.6711C8.72538 19.4811 8.88466 20.743 9.49245 21.919C10.1032 23.1008 11.1681 24.1966 12.9291 24.6511L13.0174 24.2957ZM17.3223 27.0548C17.2623 26.9771 17.1675 26.8898 17.0565 26.7991C16.9429 26.7061 16.8024 26.6018 16.6431 26.49C16.3245 26.2662 15.9238 26.0078 15.4978 25.7439C14.6455 25.2159 13.6847 24.6618 13.0597 24.3126L12.8868 24.6342C13.5087 24.9816 14.4647 25.5329 15.3111 26.0572C15.7344 26.3195 16.1286 26.5739 16.4391 26.7919C16.5945 26.901 16.7272 26.9998 16.8315 27.0851C16.9384 27.1725 17.0063 27.2384 17.0398 27.2817L17.3223 27.0548ZM17.0012 22.4019V27.1682H17.3609V22.4019H17.0012ZM13.8319 18.8464C16.1675 19.9652 16.915 21.727 17.0027 22.4252L17.3594 22.3786C17.2553 21.5491 16.4253 19.6836 13.9848 18.5145L13.8319 18.8464ZM10.5821 13.5161C10.4916 14.8156 11.0233 15.9757 11.7069 16.8888C12.3906 17.8019 13.2384 18.4851 13.8159 18.8377L14.0007 18.5232C13.4574 18.1914 12.6455 17.5381 11.9928 16.6663C11.34 15.7945 10.8587 14.7211 10.9409 13.5421L10.5821 13.5161ZM9.46174 10.6517C10.0863 10.9533 10.4047 11.4779 10.5497 12.0255C10.6959 12.5779 10.6618 13.1431 10.586 13.4892L10.937 13.569C11.0231 13.1757 11.0608 12.5494 10.8969 11.93C10.7317 11.3058 10.3578 10.6787 9.6157 10.3203L9.46174 10.6517ZM9.09631 8.54098C8.83647 8.98799 8.83683 9.43298 8.94166 9.80065C9.04495 10.163 9.25013 10.4545 9.4129 10.617L9.66451 10.355C9.53957 10.2303 9.37072 9.99197 9.28703 9.69832C9.20481 9.41003 9.20521 9.07283 9.40571 8.72789L9.09631 8.54098ZM10.9946 8.1453C10.6336 7.93503 10.2386 7.96315 9.91104 8.06603C9.58366 8.16884 9.3003 8.35278 9.13533 8.49405L9.36665 8.77479C9.50141 8.6594 9.74309 8.50241 10.0169 8.41639C10.2906 8.33045 10.5729 8.32191 10.8161 8.46362L10.9946 8.1453ZM13.8184 12.0319C13.8493 11.0697 13.3661 10.2185 12.7774 9.55669C12.1872 8.89321 11.4715 8.39758 10.9882 8.14178L10.8225 8.46714C11.2743 8.7063 11.9539 9.17677 12.511 9.80296C13.0695 10.4308 13.4855 11.1929 13.4589 12.0199L13.8184 12.0319ZM16.2525 16.5463C15.0795 16.1197 14.4319 15.2886 14.095 14.4166C13.7557 13.5386 13.7334 12.6222 13.8165 12.0528L13.4608 11.9989C13.37 12.6211 13.3944 13.6039 13.7604 14.5509C14.1286 15.5039 14.8447 16.4235 16.1316 16.8916L16.2525 16.5463ZM18.7246 18.9776C18.6871 18.767 18.5451 18.5432 18.3729 18.3324C18.1959 18.1157 17.9664 17.8888 17.7216 17.6703C17.2316 17.2331 16.6645 16.8166 16.291 16.5658L16.0931 16.872C16.4569 17.1162 17.0101 17.5228 17.4848 17.9462C17.7223 18.1582 17.9363 18.3709 18.0966 18.5671C18.2617 18.7691 18.3508 18.9312 18.3708 19.0432L18.7246 18.9776ZM20.8687 16.8186C20.6659 16.8819 20.4425 17.0118 20.2202 17.1698C19.9956 17.3294 19.7617 17.5253 19.5368 17.7303C19.0873 18.1403 18.6649 18.595 18.4123 18.8898L18.6831 19.131C18.928 18.8453 19.34 18.4018 19.7766 18.0036C19.9949 17.8045 20.2171 17.6189 20.4259 17.4705C20.637 17.3205 20.8243 17.2159 20.974 17.1692L20.8687 16.8186ZM29.601 12.5571L20.8437 16.8285L20.9989 17.1592L29.7562 12.8879L29.601 12.5571ZM31.6089 13.1889C31.4587 12.7871 31.0565 12.6161 30.6903 12.5472C30.3145 12.4766 29.9101 12.4995 29.6504 12.5415L29.7067 12.9035C29.9385 12.8661 30.3002 12.8468 30.6251 12.9078C30.9596 12.9707 31.1927 13.1052 31.2728 13.3194L31.6089 13.1889ZM30.9667 15.4771C31.4855 15.1165 31.7066 14.6553 31.7638 14.2227C31.8199 13.7978 31.7173 13.4081 31.6016 13.1722L31.28 13.3361C31.3681 13.5158 31.4525 13.8317 31.4074 14.1738C31.3632 14.5081 31.1947 14.8748 30.7641 15.1742L30.9667 15.4771ZM22.3301 19.7255L30.9435 15.4908L30.7873 15.1605L22.1739 19.3953L22.3301 19.7255ZM20.274 23.1902C20.274 21.2453 21.6493 20.0668 22.3313 19.7249L22.1727 19.3959C21.4161 19.7751 19.9143 21.0579 19.9143 23.1902H20.274ZM20.274 24.6201V23.1902H19.9143V24.6201H20.274ZM12.3005 4.0551C11.9872 3.64937 12.0559 3.06156 12.4539 2.74221L12.2315 2.4541C11.6774 2.89868 11.5818 3.71702 12.0179 4.28187L12.3005 4.0551ZM13.7018 5.87021L12.3005 4.0551L12.0179 4.28187L13.4192 6.09698L13.7018 5.87021ZM14.9896 6.02665C14.5916 6.34603 14.015 6.27597 13.7018 5.87021L13.4192 6.09698C13.8553 6.66186 14.6579 6.75935 15.212 6.3148L14.9896 6.02665ZM15.1431 4.71374C15.4563 5.11951 15.3876 5.70731 14.9896 6.02665L15.212 6.3148C15.7661 5.87021 15.8618 5.05186 15.4257 4.48701L15.1431 4.71374ZM13.7418 2.89866L15.1431 4.71374L15.4257 4.48701L14.0244 2.6719L13.7418 2.89866ZM12.4539 2.74221C12.8519 2.42286 13.4285 2.4929 13.7418 2.89866L14.0244 2.6719C13.5883 2.10703 12.7856 2.00951 12.2315 2.4541L12.4539 2.74221ZM25.6136 2.38339C25.0774 1.91655 24.2715 1.98121 23.8136 2.52783L24.0871 2.76595C24.416 2.3733 24.9949 2.32685 25.38 2.66219L25.6136 2.38339ZM25.7553 4.21844C26.2132 3.67182 26.1498 2.85024 25.6136 2.38339L25.38 2.66219C25.7652 2.99754 25.8107 3.58768 25.4818 3.98031L25.7553 4.21844ZM24.2838 5.97488L25.7553 4.21844L25.4818 3.98031L24.0103 5.73675L24.2838 5.97488ZM22.4838 6.1193C23.02 6.58615 23.8259 6.52147 24.2838 5.97488L24.0103 5.73675C23.6814 6.12939 23.1025 6.17584 22.7174 5.84051L22.4838 6.1193ZM22.3422 4.28426C21.8842 4.83088 21.9476 5.65246 22.4838 6.1193L22.7174 5.84051C22.3322 5.50518 22.2867 4.91503 22.6156 4.52239L22.3422 4.28426ZM23.8136 2.52783L22.3422 4.28426L22.6156 4.52239L24.0871 2.76595L23.8136 2.52783ZM27.8103 7.41524C28.2524 7.16328 28.8112 7.32442 29.0583 7.7751L29.3723 7.59621C29.0282 6.96874 28.2504 6.74443 27.6349 7.0952L27.8103 7.41524ZM25.8326 8.5423L27.8103 7.41524L27.6349 7.0952L25.6572 8.22226L25.8326 8.5423ZM25.4796 9.81458C25.2325 9.36387 25.3905 8.79426 25.8326 8.5423L25.6572 8.22226C25.0417 8.57302 24.8217 9.366 25.1657 9.99347L25.4796 9.81458ZM26.7276 10.1745C26.2855 10.4264 25.7268 10.2653 25.4796 9.81458L25.1657 9.99347C25.5098 10.6209 26.2876 10.8453 26.9031 10.4945L26.7276 10.1745ZM28.7053 9.04739L26.7276 10.1745L26.9031 10.4945L28.8808 9.36743L28.7053 9.04739ZM29.0583 7.7751C29.3055 8.22581 29.1474 8.79543 28.7053 9.04739L28.8808 9.36743C29.4963 9.01666 29.7163 8.22369 29.3723 7.59621L29.0583 7.7751ZM15.1491 49.9001V50.8167H15.5087V49.9001H15.1491ZM26.428 39.7697C24.8902 40.2211 22.4898 41.2631 20.2669 42.9262C18.0446 44.5893 15.9837 46.8855 15.156 49.8498L15.5019 49.9503C16.2998 47.0923 18.2938 44.8576 20.4797 43.222C22.6652 41.5864 25.0264 40.5624 26.5275 40.1217L26.428 39.7697ZM31.5118 35.3456C31.0224 36.023 30.1771 37.0602 29.2365 37.9644C28.7663 38.4165 28.2753 38.8326 27.7957 39.1534C27.3141 39.4753 26.8551 39.6942 26.4475 39.765L26.508 40.1265C26.9851 40.0433 27.4922 39.7947 27.993 39.4599C28.4958 39.1233 29.0035 38.6925 29.4832 38.2313C30.4424 37.3092 31.3018 36.2545 31.8014 35.5631L31.5118 35.3456ZM31.2709 33.8168C31.3837 33.9451 31.5356 34.1842 31.6101 34.4679C31.6837 34.7478 31.6799 35.0605 31.5027 35.3595L31.8105 35.5492C32.0504 35.1443 32.0497 34.7236 31.9575 34.373C31.8663 34.0261 31.6837 33.7371 31.5388 33.5722L31.2709 33.8168ZM29.6564 33.9394C29.7853 33.8185 30.0292 33.6624 30.325 33.604C30.6143 33.547 30.9544 33.5825 31.2978 33.8418L31.5119 33.5471C31.0785 33.2198 30.6333 33.1698 30.2567 33.2441C29.8866 33.3171 29.5838 33.5093 29.413 33.6695L29.6564 33.9394ZM28.3772 35.4812L29.6719 33.923L29.3975 33.686L28.1028 35.2442L28.3772 35.4812ZM22.3159 38.6379C23.2303 38.3919 24.6282 37.9409 25.8527 37.3855C26.4646 37.1079 27.0393 36.8018 27.49 36.4786C27.9336 36.1608 28.2876 35.8054 28.411 35.4195L28.069 35.3059C27.9838 35.5726 27.7143 35.8697 27.2832 36.1787C26.8592 36.4826 26.308 36.7776 25.7065 37.0503C24.5044 37.5955 23.1258 38.041 22.2241 38.2837L22.3159 38.6379ZM13.1335 46.7752C13.6614 45.72 14.7588 44.0371 16.3276 42.4407C17.8964 40.8444 19.9271 39.3441 22.3201 38.6368L22.2199 38.2848C19.7505 39.0148 17.6693 40.5576 16.0736 42.1811C14.4779 43.805 13.3581 45.5191 12.8131 46.6087L13.1335 46.7752ZM5.79197 42.9966C6.85464 43.383 8.48453 44.0397 9.91848 44.7517C10.6358 45.108 11.2998 45.4762 11.818 45.8292C12.0772 46.006 12.2967 46.1768 12.4673 46.3381C12.6395 46.5013 12.753 46.6465 12.8109 46.7708L13.1356 46.6131C13.0498 46.4294 12.8995 46.2472 12.712 46.0694C12.5228 45.8905 12.2866 45.7079 12.0179 45.5246C11.4804 45.1583 10.8003 44.7817 10.076 44.4221C8.62687 43.7023 6.98403 43.0409 5.91281 42.6512L5.79197 42.9966ZM0.620877 36.9792C0.788953 38.426 2.06034 41.6187 5.79114 42.9962L5.91364 42.6515C2.33656 41.3305 1.13362 38.2757 0.978021 36.936L0.620877 36.9792ZM0.619629 23.8318V36.9576H0.979269V23.8318H0.619629ZM1.01352 23.2492C0.852308 23.2845 0.619629 23.461 0.619629 23.8318H0.979269C0.979269 23.7326 1.00812 23.6788 1.03159 23.6504C1.04431 23.6349 1.05769 23.6241 1.06921 23.6171C1.08142 23.6096 1.08918 23.6076 1.08887 23.6077L1.01352 23.2492ZM4.01823 23.2451H1.0512V23.6118H4.01823V23.2451ZM4.19805 27.2599V23.4285H3.83841V27.2599H4.19805ZM18.9056 37.4456C18.7588 36.3754 17.8194 34.621 15.5481 32.7236C13.2707 30.8211 9.63926 28.7611 4.06916 27.0841L3.9673 27.4357C9.50288 29.1024 13.0882 31.1427 15.3201 33.0072C17.5581 34.8767 18.4205 36.556 18.5494 37.4962L18.9056 37.4456ZM33.2632 27.1382C31.0018 27.7736 27.5568 29.0456 24.5652 30.7999C23.0693 31.6772 21.6805 32.6786 20.6093 33.7863C19.5388 34.8931 18.7746 36.1172 18.5503 37.4397L18.9047 37.502C19.112 36.28 19.8239 35.1205 20.8653 34.0437C21.906 32.9677 23.2651 31.9853 24.7445 31.1178C27.7034 29.3826 31.1186 28.1211 33.3587 27.4916L33.2632 27.1382ZM33.1311 23.4285V27.3149H33.4908V23.4285H33.1311ZM36.1521 23.2451H33.3109V23.6118H36.1521V23.2451ZM36.6004 23.7445C36.6101 23.6657 36.6015 23.5462 36.5346 23.4397C36.4598 23.3205 36.3291 23.2451 36.1521 23.2451V23.6118C36.1895 23.6118 36.2084 23.6192 36.2165 23.6234C36.2241 23.6274 36.2283 23.6318 36.2317 23.6373C36.2358 23.6438 36.2398 23.6538 36.2421 23.6669C36.2444 23.6804 36.2442 23.6923 36.2434 23.6991L36.6004 23.7445ZM36.6018 35.3627V23.7218H36.242V35.3627H36.6018ZM33.0453 42.33C34.2726 41.7463 36.6457 39.545 36.6015 35.3607L36.242 35.3647C36.2844 39.3932 34.0036 41.4695 32.8932 41.9978L33.0453 42.33ZM27.1043 44.8265C28.7055 44.1478 32.1311 42.7003 33.0356 42.3344L32.903 41.9934C31.9949 42.3608 28.5658 43.8098 26.9662 44.4877L27.1043 44.8265ZM22.3035 50.8471C22.5433 49.386 23.8437 46.1303 27.1009 44.8276L26.9695 44.4866C23.5518 45.8531 22.2005 49.2529 21.9488 50.7862L22.3035 50.8471ZM15.3289 51H22.1261V50.6334H15.3289V51ZM10.1598 36.3972L8.70329 34.6923L8.43209 34.9331L9.88863 36.638L10.1598 36.3972ZM12.9619 38.6716C12.7615 38.1242 12.2214 37.6249 11.6666 37.2315C11.1038 36.8326 10.4898 36.5176 10.0937 36.3485L9.95477 36.6866C10.3318 36.8476 10.9227 37.1504 11.4613 37.5325C12.0078 37.92 12.4657 38.3648 12.625 38.8L12.9619 38.6716ZM13.8544 41.7423C13.8544 40.3608 13.2497 39.0999 12.9428 38.6335L12.6442 38.8381C12.9246 39.2638 13.4947 40.4546 13.4947 41.7423H13.8544ZM10.5495 39.9611C10.984 40.0418 11.5711 40.3666 12.1453 40.7619C12.7126 41.1523 13.242 41.593 13.5546 41.8787L13.7946 41.6059C13.4718 41.3107 12.9295 40.859 12.3465 40.4579C11.7704 40.0612 11.1288 39.6957 10.6138 39.6003L10.5495 39.9611ZM6.55024 36.9895C7.02248 37.6773 7.7861 38.3123 8.53552 38.8238C9.28775 39.3375 10.0413 39.7364 10.5086 39.9483L10.6547 39.6132C10.2049 39.4093 9.46962 39.0203 8.73559 38.5195C7.99883 38.0164 7.27894 37.4111 6.84485 36.779L6.55024 36.9895ZM5.40629 35.5322L6.55714 36.9986L6.83798 36.7699L5.68713 35.3032L5.40629 35.5322ZM5.65671 33.6195C5.35141 33.8459 5.2606 34.2303 5.24963 34.5674C5.23848 34.9111 5.30775 35.2567 5.37536 35.4733L5.71806 35.3621C5.65977 35.1753 5.5996 34.872 5.60909 34.5796C5.6188 34.2805 5.69882 34.0417 5.86825 33.9161L5.65671 33.6195ZM7.57913 33.3893C7.21672 33.1745 6.81335 33.1782 6.47309 33.2567C6.13291 33.3352 5.8348 33.4928 5.65955 33.6175L5.86541 33.9181C6.00786 33.8167 6.2636 33.681 6.55247 33.6143C6.84129 33.5477 7.14224 33.5545 7.39838 33.7063L7.57913 33.3893ZM8.70337 34.6924L7.62445 33.4275L7.35306 33.6681L8.43198 34.933L8.70337 34.6924Z" fill="#071952"/>
</g>
</svg>
