<svg width="308" height="269" viewBox="0 0 308 269" fill="none" xmlns="http://www.w3.org/2000/svg">
<g clip-path="url(#clip0_66_5021)">
<path d="M0 253.793C0 254.141 0.303623 254.422 0.68172 254.422H307.318C307.696 254.422 308 254.141 308 253.793C308 253.444 307.696 253.164 307.318 253.164H0.68172C0.303623 253.164 0 253.444 0 253.793Z" fill="#2F2E43"/>
<path d="M92.0666 11.2586L89.6548 16.8246C89.6548 16.8246 87.432 24.6159 90.0386 27.7239C92.6394 30.8267 93.218 54.6181 90.4224 56.373C87.6268 58.1332 125.855 40.0821 125.855 40.0821C125.855 40.0821 110.931 8.15058 110.679 8.03429C110.427 7.91801 100.648 5.10596 100.648 5.10596L92.078 11.2586H92.0666Z" fill="#2F2E43"/>
<path d="M116.958 38.7716L104.148 42.6567V25.647H115.766L116.958 38.7716Z" fill="#F3A3A6"/>
<path d="M77.8021 135.343C77.1089 139.239 74.2904 142.035 71.5119 141.586C68.7335 141.136 67.0378 137.611 67.7367 133.71C67.9887 132.15 68.659 130.67 69.6902 129.407L72.8639 112.931L81.5028 114.601L77.4526 130.665C77.9854 132.187 78.1057 133.789 77.8021 135.343Z" fill="#F3A3A6"/>
<path d="M112.14 229.214H100.144V244.918H112.14V229.214Z" fill="#F3A3A6"/>
<path d="M88.4631 254.422C87.2028 254.422 86.08 254.395 85.2321 254.321C82.0469 254.052 79.005 251.879 77.4754 250.611C76.788 250.04 76.5703 249.131 76.9254 248.348C77.1832 247.788 77.6931 247.365 78.329 247.201L86.7502 244.981L100.385 236.492L100.539 236.746C100.597 236.841 101.937 239.066 102.384 240.568C102.556 241.138 102.51 241.614 102.252 241.984C102.075 242.238 101.823 242.386 101.622 242.47C101.868 242.708 102.642 243.195 105.025 243.543C108.502 244.051 109.236 240.726 109.264 240.589L109.287 240.478L109.39 240.414C111.046 239.431 112.066 238.982 112.415 239.077C112.633 239.135 112.999 239.241 113.99 248.295C114.088 248.581 114.781 250.663 114.311 252.656C113.801 254.823 103.535 254.078 101.479 253.909C101.422 253.914 93.7336 254.422 88.4689 254.422H88.4631Z" fill="#2F2E43"/>
<path d="M146.3 216.883L136.122 222.74L145.128 236.065L155.307 230.208L146.3 216.883Z" fill="#F3A3A6"/>
<path d="M132.781 252.27C131.372 252.27 130.077 252.112 129.154 251.964C128.249 251.816 127.539 251.15 127.39 250.315C127.287 249.712 127.476 249.104 127.923 248.655L133.795 242.661L140.497 228.801L140.772 228.939C140.875 228.992 143.287 230.223 144.53 231.281C145.006 231.682 145.241 232.11 145.229 232.549C145.229 232.856 145.098 233.099 144.972 233.273C145.315 233.358 146.249 233.39 148.472 232.523C151.714 231.259 150.431 228.077 150.374 227.945L150.328 227.839L150.379 227.739C151.222 226.095 151.823 225.218 152.178 225.128C152.402 225.07 152.768 224.98 158.801 232.184C159.047 232.375 160.829 233.807 161.573 235.726C162.381 237.814 153.244 242.196 151.405 243.052C151.348 243.094 141.786 249.506 137.856 251.33C136.298 252.054 134.454 252.276 132.775 252.276L132.781 252.27Z" fill="#2F2E43"/>
<path d="M120.974 97.8877H87.3863L84.3386 126.716L97.6751 233.236H114.821L107.964 171.715L135.777 227.258L151.015 217.416L129.298 165.562C129.298 165.562 137.054 120.389 130.959 109.136C124.864 97.8877 120.974 97.8877 120.974 97.8877Z" fill="#2F2E43"/>
<path d="M137.679 99.6481H79.3889L100.345 36.0176H123.586L137.679 99.6481Z" fill="#0E287D"/>
<path d="M104.011 36.0226C104.011 36.0226 89.5346 35.6685 88.0107 39.1888C86.4869 42.7039 68.5789 126.373 68.5789 126.373H80.3915L104.017 36.0226H104.011Z" fill="#0E287D"/>
<path d="M105.735 30.3509C112.784 30.3509 118.499 25.0783 118.499 18.5741C118.499 12.07 112.784 6.79736 105.735 6.79736C98.6862 6.79736 92.9717 12.07 92.9717 18.5741C92.9717 25.0783 98.6862 30.3509 105.735 30.3509Z" fill="#F3A3A6"/>
<path d="M108.21 0.280094C108.21 0.280094 123.575 -3.35125 128.278 15.5138C128.278 15.5138 128.404 20.4349 131.074 22.4276C133.743 24.4204 132.85 34.733 132.85 34.733C132.85 34.733 137.931 42.4661 133.612 45.9812C133.612 45.9812 131.704 53.1276 134.499 57.2294C137.295 61.3312 147.836 83.891 130.306 85.2653C130.306 85.2653 121.415 80.3125 125.608 65.5492C129.802 50.786 125.099 42.63 125.099 42.63C125.099 42.63 111.636 38.1265 112.398 28.5169C113.16 18.9073 103.759 9.41397 103.129 9.53554C102.499 9.65712 95.8878 6.13677 92.9661 16.9198L89.8382 16.4282C89.8382 16.4282 88.5263 -1.71266 108.21 0.280094Z" fill="#2F2E43"/>
<path d="M147.63 133.456C148.483 137.325 146.919 140.862 144.147 141.353C141.374 141.845 138.435 139.101 137.587 135.232C137.226 133.689 137.284 132.092 137.753 130.57L134.379 114.126L143.098 112.852L145.499 129.196C146.581 130.443 147.309 131.902 147.63 133.456Z" fill="#F3A3A6"/>
<path d="M113.429 36.0966C113.429 36.0966 126.181 34.606 127.705 38.1211C129.229 41.6362 147.137 125.305 147.137 125.305H135.324L113.429 36.0966Z" fill="#0E287D"/>
<path d="M148.134 123.672C145.04 126.399 144.129 130.126 146.106 131.986C148.077 133.852 152.184 133.149 155.283 130.416C156.538 129.343 157.477 128.001 158.033 126.5L170.98 114.776L164.61 109.141L152.528 121.293C150.866 121.748 149.366 122.562 148.145 123.667H148.134V123.672Z" fill="#F3A3A6"/>
<path d="M153.181 118.185L177.075 89.9274L189.65 59.5604C191.025 56.2462 193.918 53.746 197.596 52.7047C201.273 51.6634 205.192 52.229 208.343 54.264C213.493 57.5835 215.137 63.9423 212.169 69.0537L192.789 102.423L192.761 102.476L159.597 125.638L153.181 118.196V118.185Z" fill="#0E287D"/>
<path d="M209.179 56.2834L194.273 60.8028V41.0127H207.793L209.179 56.2834Z" fill="#F3A3A6"/>
<path d="M196.118 46.4885C204.319 46.4885 210.967 40.3545 210.967 32.7877C210.967 25.221 204.319 19.0869 196.118 19.0869C187.917 19.0869 181.269 25.221 181.269 32.7877C181.269 40.3545 187.917 46.4885 196.118 46.4885Z" fill="#F3A3A6"/>
<path d="M199.899 33.8607L197.854 36.1548L194.153 30.1765C194.153 30.1765 189.427 30.4038 189.427 27.1636C189.427 23.9234 185.09 23.8388 185.09 23.8388C185.09 23.8388 178.949 13.9491 191.667 16.555C191.667 16.555 200.483 10.9785 204.871 15.7463C204.871 15.7463 218.317 21.9941 214.467 32.8723L208.074 44.0835L206.624 41.5463C206.624 41.5463 207.501 30.8901 199.899 33.8607Z" fill="#2F2E43"/>
<path d="M213.269 243.792H201.273V259.496H213.269V243.792Z" fill="#F3A3A6"/>
<path d="M189.587 269C188.327 269 187.204 268.973 186.356 268.899C183.171 268.63 180.129 266.457 178.599 265.189C177.912 264.618 177.694 263.709 178.049 262.926C178.307 262.366 178.817 261.943 179.453 261.779L187.874 259.559L201.508 251.07L201.663 251.324C201.72 251.419 203.061 253.645 203.508 255.146C203.68 255.717 203.634 256.192 203.376 256.562C203.198 256.816 202.946 256.964 202.746 257.049C202.992 257.286 203.766 257.773 206.149 258.122C209.626 258.629 210.359 255.304 210.388 255.167L210.411 255.056L210.514 254.992C212.17 254.009 213.189 253.56 213.539 253.655C213.756 253.713 214.123 253.819 215.114 262.874C215.212 263.159 215.905 265.242 215.435 267.234C214.925 269.402 204.659 268.656 202.603 268.487C202.545 268.492 194.857 269 189.593 269H189.587Z" fill="#2F2E43"/>
<path d="M238.675 220.253L229.432 227.309L240.281 239.409L249.524 232.354L238.675 220.253Z" fill="#F3A3A6"/>
<path d="M237.852 253.581C236.878 254.321 235.996 254.961 235.297 255.405C232.656 257.07 228.812 257.186 226.761 257.107C225.839 257.07 225.042 256.499 224.773 255.685C224.584 255.098 224.687 254.475 225.059 253.973L230.015 247.307L234.655 232.75L234.947 232.856C235.056 232.893 237.623 233.823 239.009 234.716C239.536 235.055 239.828 235.451 239.885 235.884C239.925 236.186 239.834 236.45 239.736 236.635C240.092 236.672 241.02 236.593 243.099 235.462C246.13 233.812 244.4 230.815 244.319 230.689L244.262 230.588L244.297 230.482C244.892 228.749 245.368 227.808 245.706 227.676C245.918 227.591 246.267 227.454 253.285 233.855C253.56 234.013 255.531 235.213 256.545 237.026C257.65 238.998 249.223 244.463 247.522 245.536C247.482 245.573 241.908 250.484 237.852 253.581Z" fill="#2F2E43"/>
<path d="M181.435 122.689H222.585L213.442 248.19H199.727L181.441 122.689H181.435Z" fill="#2F2E43"/>
<path d="M189.816 129.603L181.435 122.689L185.623 191.711L232.49 232.84L244.176 223.933L216.867 191.241L189.816 129.603Z" fill="#2F2E43"/>
<path d="M189.816 48.862L210.136 45.8174L216.449 55.9978C224.469 68.9375 227.74 83.9281 225.776 98.7283L222.585 122.689H181.435L189.816 48.862Z" fill="#0E287D"/>
<path d="M148.3 128.625C144.886 131.009 143.516 134.609 145.241 136.67C146.965 138.731 151.136 138.472 154.55 136.089C155.931 135.153 157.036 133.921 157.769 132.489L172.091 122.224L166.466 115.944L152.94 126.733C151.233 127.008 149.64 127.658 148.288 128.625H148.3Z" fill="#F3A3A6"/>
<path d="M154 123.709L181.269 98.184L197.556 69.3605C199.332 66.2155 202.522 64.0377 206.309 63.3929C210.09 62.748 213.911 63.7311 216.793 66.0833C221.496 69.9314 222.332 76.4224 218.746 81.1796L195.321 112.26L195.287 112.308L159.448 131.781L154.006 123.704H154V123.709Z" fill="#0E287D"/>
</g>
<defs>
<clipPath id="clip0_66_5021">
<rect width="308" height="269" fill="white"/>
</clipPath>
</defs>
</svg>
