<svg width="358" height="253" viewBox="0 0 358 253" fill="none" xmlns="http://www.w3.org/2000/svg">
<g clip-path="url(#clip0_66_5390)">
<path d="M178.516 116.48C184.817 116.48 189.925 111.353 189.925 105.03C189.925 98.7063 184.817 93.5801 178.516 93.5801C172.214 93.5801 167.106 98.7063 167.106 105.03C167.106 111.353 172.214 116.48 178.516 116.48Z" fill="#0E287D"/>
<path d="M53.8862 15.0566V124.103C53.8894 126.752 54.9395 129.291 56.8061 131.165C58.6728 133.038 61.2036 134.092 63.8434 134.095H348.043C350.683 134.092 353.213 133.038 355.08 131.165C356.947 129.291 357.997 126.752 358 124.103V15.0566C357.997 12.4075 356.947 9.86781 355.08 7.99461C353.213 6.12141 350.683 5.06764 348.043 5.06445H63.8434C61.2036 5.06764 58.6728 6.12141 56.8061 7.99461C54.9395 9.86781 53.8894 12.4075 53.8862 15.0566ZM54.7639 15.0566C54.7639 12.6401 55.7205 10.3226 57.4232 8.61387C59.126 6.90516 61.4354 5.94521 63.8434 5.94521H288.806C306.925 5.94521 324.301 13.168 337.113 26.0247C349.925 38.8815 357.122 56.3189 357.122 74.5011V124.103C357.122 126.519 356.166 128.837 354.463 130.545C352.76 132.254 350.451 133.214 348.043 133.214H63.8434C61.4354 133.214 59.126 132.254 57.4232 130.545C55.7205 128.837 54.7639 126.519 54.7639 124.103V15.0566Z" fill="#3F3D56"/>
<path d="M57.1634 244.796L63.5296 244.796L66.558 220.154L57.1621 220.155L57.1634 244.796Z" fill="#FFB6B6"/>
<path d="M56.9393 251.461L76.516 251.46V251.212C76.5159 249.184 75.713 247.239 74.2841 245.805C72.8551 244.371 70.917 243.565 68.8962 243.565H68.8957L65.3198 240.843L58.6479 243.566L56.939 243.566L56.9393 251.461Z" fill="#2F2E41"/>
<path d="M29.3929 244.796L35.7591 244.796L38.7875 220.154L29.3916 220.155L29.3929 244.796Z" fill="#FFB6B6"/>
<path d="M29.1688 251.461L48.7455 251.46V251.212C48.7454 249.184 47.9425 247.239 46.5136 245.805C45.0846 244.371 43.1466 243.565 41.1257 243.565H41.1252L37.5493 240.843L30.8774 243.566L29.1685 243.566L29.1688 251.461Z" fill="#2F2E41"/>
<path d="M73.0141 110.531C73.0141 110.531 79.1392 129.41 78.0086 131.894C76.878 134.379 74.9491 132.443 76.878 134.379C78.807 136.315 80.4908 134.257 78.6844 137.544C76.878 140.831 74.1414 167.892 72.9378 169.202C71.7342 170.512 70.0794 170.547 71.5498 171.82C73.0202 173.093 74.9491 170.512 73.0202 173.093C71.0913 175.674 65.9728 235.213 65.9728 235.213H55.9737C55.9737 235.213 53.4833 232.333 54.8931 230.458C56.3028 228.583 54.7693 227.86 54.8931 226.609C55.0168 225.357 54.5479 222.658 54.4609 221.427C54.3738 220.195 52.684 190.857 56.7438 173.91L49.3408 141.64L40.3733 180.642C40.3733 180.642 44.4983 213.357 40.3733 223.873C40.3733 223.873 43.699 226.652 42.224 228.263C40.7491 229.874 39.4631 228.583 40.7491 229.874C42.0351 231.164 38.8202 235.681 38.8202 235.681L27.8895 235.035L21.7028 173.91C21.7028 173.91 20.6598 167.535 21.7028 166.442C22.7457 165.35 22.7457 169.222 22.7457 165.35V160.188C22.7457 160.188 23.3498 128.44 23.4304 126.57C23.5109 124.7 31.2266 111.151 31.2266 111.151L73.0141 110.531Z" fill="#2F2E41"/>
<path d="M72.9231 45.3277V82.5527C71.7256 86.1572 71.1079 89.93 71.0931 93.7295C71.1326 100.058 72.5194 107.35 72.515 110.539C72.5334 110.962 72.4876 111.385 72.3789 111.794C66.2396 129.651 33.7525 113.423 30.7992 111.904C30.6587 111.833 30.5841 111.794 30.5841 111.794L31.2248 91.7918L31.1151 86.0405L30.356 46.5872L31.0361 46.0411L36.9955 41.2718L37.5792 40.805L39.3696 43.4253L55.3301 42.3243L61.4212 40.6333L63.3214 41.4084L71.8874 44.9049L72.9231 45.3277Z" fill="#0E287D"/>
<path d="M128.548 74.58L117.363 70.8691L114.359 76.9852L126.323 80.4863C126.714 81.1092 127.271 81.6103 127.93 81.9332C128.589 82.2561 129.325 82.388 130.055 82.3142C130.785 82.2404 131.48 81.9637 132.062 81.5153C132.644 81.0668 133.089 80.4644 133.349 79.7758C133.608 79.0871 133.671 78.3395 133.53 77.6171C133.389 76.8946 133.05 76.2258 132.551 75.686C132.053 75.1462 131.414 74.7567 130.706 74.5613C129.999 74.3659 129.251 74.3724 128.548 74.58Z" fill="#FFB6B6"/>
<path d="M62.0886 41.707L62.0423 41.8928C61.1683 45.4016 60.0524 55.4236 62.4435 58.1297C65.5141 61.6091 90.3171 72.231 95.2444 71.3656C99.066 70.6944 98.2792 70.9198 100.108 72.8287C101.936 74.7376 98.9012 75.1835 102.98 75.5175C107.058 75.8515 107.14 74.2842 108.013 76.0223C108.887 77.7605 108.11 78.8079 110.886 78.7112C113.661 78.6144 114.357 79.1344 115.312 79.3052C116.267 79.476 122.263 82.328 122.263 82.328C122.263 82.328 124.668 75.442 127.695 72.8197C127.695 72.8197 120.752 71.9733 120.226 70.4952C119.701 69.017 120.13 67.7096 118.309 67.9772C116.488 68.2447 115.541 70.2503 115.792 67.7247C116.044 65.1991 102.927 60.2825 102.927 60.2825C95.0112 52.4613 78.7474 47.0277 62.0886 41.707Z" fill="#0E287D"/>
<path d="M26.6021 119.452L26.0948 107.642L19.3311 106.991L20.3102 119.459C19.8685 120.047 19.5989 120.746 19.5317 121.48C19.4645 122.213 19.6025 122.95 19.93 123.609C20.2576 124.267 20.7617 124.821 21.3858 125.208C22.0099 125.595 22.7292 125.8 23.4628 125.799C24.1964 125.798 24.9153 125.592 25.5386 125.204C26.1619 124.816 26.6648 124.261 26.991 123.601C27.3172 122.942 27.4536 122.204 27.3849 121.471C27.3162 120.738 27.0451 120.039 26.6021 119.452Z" fill="#FFB6B6"/>
<path d="M33.6725 45.438L33.483 45.4604C31.72 45.6691 30.0342 46.3059 28.5717 47.3157C27.1091 48.3254 25.9139 49.6777 25.0894 51.2554C22.9359 55.3701 16.123 83.2389 17.7912 87.0634C19.3468 90.63 19.2825 89.753 18.152 92.1454C17.0215 94.5378 15.5301 91.8482 16.6648 95.7937C17.7995 99.7392 19.2887 99.2599 17.9788 100.696C16.669 102.132 15.4175 101.774 16.4916 104.344C17.5658 106.914 17.328 107.752 17.5074 108.708C17.6868 109.665 17.1549 116.302 17.1549 116.302C17.1549 116.302 24.4238 116.118 27.9404 118.029C27.9404 118.029 26.2676 111.214 27.4586 110.196C28.6496 109.179 30.02 109.118 29.1252 107.505C28.2304 105.891 26.0257 105.713 28.4682 105.054C30.9106 104.394 30.8418 90.3433 30.8418 90.3433L33.6725 45.438Z" fill="#0E287D"/>
<path d="M51.0999 30.3861C50.8146 30.4522 50.5294 30.5094 50.2441 30.5534C49.3728 30.6971 48.4882 30.7429 47.6067 30.69C45.3106 30.5662 43.0936 29.8067 41.2014 28.4957C39.3093 27.1846 37.8159 25.3733 36.8871 23.2625C35.9582 21.1517 35.6301 18.824 35.9391 16.5375C36.2481 14.251 37.1822 12.095 38.6378 10.3088C40.0933 8.52249 42.0135 7.1757 44.1853 6.41776C46.357 5.65981 48.6956 5.52033 50.9416 6.01478C53.1875 6.50922 55.2531 7.61828 56.9093 9.21895C58.5654 10.8196 59.7474 12.8493 60.3242 15.083C60.3505 15.1843 60.3768 15.2812 60.3988 15.3825C61.1476 18.6095 60.5886 22.0028 58.8448 24.8163C57.1011 27.6299 54.3152 29.6333 51.0999 30.3861Z" fill="#FFB6B6"/>
<path d="M39.6102 28.9118C37.8787 27.552 37.7107 24.96 36.2331 23.3262C33.7627 20.5944 32.6021 17.6554 33.8962 14.4185C35.0408 11.5556 34.7975 8.03636 37.2626 6.19353C36.0519 5.7537 35.767 4.84033 36.8353 4.82346C37.5557 4.81209 40.2412 6.19378 38.949 4.47257C37.6568 2.75135 40.1029 3.43076 39.9411 2.72621C39.7793 2.02166 38.7418 1.63143 38.2842 2.18991C39.7451 0.472177 42.9354 0.838396 43.9719 2.84282C45.428 0.652949 46.9736 -0.853886 49.2017 0.535801C51.39 1.90068 51.3614 3.58787 53.7147 3.18239C54.821 2.99179 54.9255 5.08922 55.6812 5.92206C56.437 6.7549 57.5417 7.39947 58.6447 7.1903C59.7476 6.98113 60.591 5.60178 59.973 4.66148L62.5726 10.6128L63.6203 9.32323C65.285 10.412 64.7382 13.2529 63.0625 14.3245C61.3868 15.3961 58.1887 12.9193 57.2793 14.6922C55.8458 17.4869 52.483 16.0757 50.1735 14.1006C47.3729 11.7054 43.9926 18.9881 45.3416 22.4233C43.9418 21.0439 41.3524 22.1886 40.6272 24.0179C39.9021 25.8471 40.4338 27.9081 40.9714 29.8014L39.6102 28.9118Z" fill="#2F2E41"/>
<path d="M212.581 70.032H199.408C199.066 70.0316 198.738 69.8952 198.497 69.6527C198.255 69.4101 198.119 69.0813 198.119 68.7383V55.6805C198.119 55.3375 198.255 55.0086 198.497 54.7661C198.738 54.5235 199.066 54.3871 199.408 54.3867H212.581C212.923 54.3871 213.25 54.5235 213.492 54.7661C213.734 55.0086 213.87 55.3375 213.87 55.6805V68.7383C213.87 69.0813 213.734 69.4101 213.492 69.6527C213.25 69.8952 212.923 70.0316 212.581 70.032Z" fill="#F2F2F2"/>
<path d="M214.774 71.1321H201.601C201.259 71.1317 200.931 70.9953 200.69 70.7528C200.448 70.5102 200.312 70.1814 200.312 69.8384V56.7806C200.312 56.4376 200.448 56.1087 200.69 55.8662C200.931 55.6236 201.259 55.4872 201.601 55.4868H214.774C215.115 55.4872 215.443 55.6236 215.685 55.8662C215.926 56.1087 216.062 56.4376 216.063 56.7806V69.8384C216.062 70.1814 215.926 70.5102 215.685 70.7528C215.443 70.9953 215.115 71.1317 214.774 71.1321Z" fill="#F2F2F2"/>
<path d="M199.684 54.772C199.371 54.772 199.07 54.8968 198.849 55.1191C198.627 55.3414 198.503 55.6429 198.503 55.9573V68.461C198.503 68.7754 198.627 69.0769 198.849 69.2992C199.07 69.5215 199.371 69.6463 199.684 69.6463H207.739C209.263 69.6463 210.725 69.0387 211.803 67.9572C212.88 66.8756 213.486 65.4087 213.486 63.8792V55.9573C213.486 55.6429 213.362 55.3414 213.14 55.1191C212.918 54.8968 212.618 54.772 212.305 54.772H199.684Z" fill="white"/>
<path d="M209.522 58.5666H202.438C202.373 58.5666 202.311 58.5407 202.265 58.4946C202.219 58.4485 202.193 58.3859 202.193 58.3207C202.193 58.2554 202.219 58.1929 202.265 58.1467C202.311 58.1006 202.373 58.0747 202.438 58.0747H209.522C209.587 58.0747 209.65 58.1006 209.696 58.1467C209.741 58.1929 209.767 58.2554 209.767 58.3207C209.767 58.3859 209.741 58.4485 209.696 58.4946C209.65 58.5407 209.587 58.5666 209.522 58.5666Z" fill="#F2F2F2"/>
<path d="M209.522 63.8112H202.438C202.373 63.8112 202.311 63.7853 202.265 63.7392C202.219 63.6931 202.193 63.6305 202.193 63.5653C202.193 63.5001 202.219 63.4375 202.265 63.3914C202.311 63.3452 202.373 63.3193 202.438 63.3193H209.522C209.587 63.3193 209.65 63.3452 209.696 63.3914C209.741 63.4375 209.767 63.5001 209.767 63.5653C209.767 63.6305 209.741 63.6931 209.696 63.7392C209.65 63.7853 209.587 63.8112 209.522 63.8112Z" fill="#F2F2F2"/>
<path d="M212.399 61.1906H199.562C199.497 61.1906 199.435 61.1647 199.389 61.1186C199.343 61.0725 199.317 61.0099 199.317 60.9447C199.317 60.8795 199.343 60.8169 199.389 60.7708C199.435 60.7246 199.497 60.6987 199.562 60.6987H212.399C212.464 60.6987 212.526 60.7246 212.572 60.7708C212.618 60.8169 212.644 60.8795 212.644 60.9447C212.644 61.0099 212.618 61.0725 212.572 61.1186C212.526 61.1647 212.464 61.1906 212.399 61.1906Z" fill="#F2F2F2"/>
<path d="M212.53 65.9441H207.893C207.828 65.9441 207.765 65.9181 207.719 65.872C207.673 65.8259 207.647 65.7633 207.647 65.6981C207.647 65.6329 207.673 65.5703 207.719 65.5242C207.765 65.4781 207.828 65.4521 207.893 65.4521H212.53C212.595 65.4521 212.657 65.4781 212.703 65.5242C212.749 65.5703 212.775 65.6329 212.775 65.6981C212.775 65.7633 212.749 65.8259 212.703 65.872C212.657 65.9181 212.595 65.9441 212.53 65.9441Z" fill="#F2F2F2"/>
<path d="M172.853 78.2061L172.682 78.1214C162.686 73.1622 151.872 73.1667 139.624 78.1349L139.295 77.3183C151.719 72.2795 162.714 72.2556 172.899 77.2471C187.233 71.7731 196.447 62.4958 200.289 49.6689L201.13 49.9227C197.189 63.0785 187.735 72.5717 173.031 78.1386L172.853 78.2061Z" fill="#F2F2F2"/>
<path d="M214.552 78.2056L214.38 78.1248C204.556 73.4996 193.736 73.5038 181.302 78.139L180.996 77.3133C193.588 72.619 204.577 72.5962 214.58 77.2466C230.629 70.8117 239.842 61.5505 241.967 49.7173L242.831 49.8734C240.641 62.0691 231.185 71.5779 214.728 78.1353L214.552 78.2056Z" fill="#F2F2F2"/>
<path d="M247.414 77.7373L247.306 77.6904C239.211 74.1983 228.679 74.2057 214.164 77.714L213.958 76.8578C228.603 73.3184 239.279 73.3099 247.543 76.8346C263.946 74.8217 272.889 65.8146 274.876 49.3022L275.748 49.408C273.699 66.4215 264.47 75.6835 247.531 77.7231L247.414 77.7373Z" fill="#F2F2F2"/>
<path d="M204.407 51.7443C206.346 51.7443 207.918 50.167 207.918 48.2213C207.918 46.2755 206.346 44.6982 204.407 44.6982C202.468 44.6982 200.896 46.2755 200.896 48.2213C200.896 50.167 202.468 51.7443 204.407 51.7443Z" fill="#0E287D"/>
<path d="M243.902 51.7443C245.841 51.7443 247.413 50.167 247.413 48.2213C247.413 46.2755 245.841 44.6982 243.902 44.6982C241.963 44.6982 240.392 46.2755 240.392 48.2213C240.392 50.167 241.963 51.7443 243.902 51.7443Z" fill="#0E287D"/>
<path d="M275.499 51.3038C277.438 51.3038 279.01 49.7265 279.01 47.7808C279.01 45.8351 277.438 44.2578 275.499 44.2578C273.56 44.2578 271.988 45.8351 271.988 47.7808C271.988 49.7265 273.56 51.3038 275.499 51.3038Z" fill="#0E287D"/>
<path d="M177.635 105.041H140.732C139.775 105.04 138.857 104.658 138.18 103.979C137.503 103.299 137.122 102.378 137.121 101.417V64.8367C137.122 63.8758 137.503 62.9546 138.18 62.2751C138.857 61.5957 139.775 61.2135 140.732 61.2124H177.635C178.592 61.2135 179.51 61.5957 180.187 62.2751C180.864 62.9546 181.245 63.8758 181.246 64.8367V101.417C181.245 102.378 180.864 103.299 180.187 103.979C179.51 104.658 178.592 105.04 177.635 105.041Z" fill="#E6E6E6"/>
<path d="M171.491 101.959H134.588C133.631 101.958 132.713 101.575 132.036 100.896C131.358 100.217 130.978 99.2953 130.977 98.3344V61.7542C130.978 60.7933 131.358 59.8721 132.036 59.1926C132.713 58.5131 133.631 58.131 134.588 58.1299H171.491C172.448 58.131 173.366 58.5131 174.043 59.1926C174.72 59.8721 175.101 60.7933 175.102 61.7542V98.3345C175.101 99.2954 174.72 100.217 174.043 100.896C173.366 101.575 172.448 101.958 171.491 101.959Z" fill="#E6E6E6"/>
<path d="M141.461 59.2095C138.966 59.2095 136.573 60.2041 134.808 61.9747C133.044 63.7452 132.053 66.1465 132.053 68.6504V97.5581C132.053 97.9941 132.138 98.4259 132.305 98.8288C132.471 99.2317 132.715 99.5977 133.022 99.9061C133.329 100.214 133.694 100.459 134.095 100.626C134.497 100.793 134.927 100.879 135.362 100.879H157.927C160.041 100.879 162.134 100.461 164.088 99.6488C166.041 98.8369 167.816 97.6468 169.311 96.1466C170.806 94.6463 171.992 92.8653 172.801 90.9051C173.61 88.9449 174.026 86.8441 174.026 84.7224V62.53C174.026 61.6493 173.678 60.8048 173.057 60.182C172.437 59.5593 171.595 59.2095 170.717 59.2095H141.461Z" fill="white"/>
<path d="M162.923 69.8399H143.079C142.897 69.8399 142.722 69.7673 142.593 69.6381C142.464 69.5089 142.392 69.3336 142.392 69.1509C142.392 68.9682 142.464 68.7929 142.593 68.6637C142.722 68.5345 142.897 68.4619 143.079 68.4619H162.923C163.105 68.4619 163.28 68.5345 163.409 68.6637C163.537 68.7929 163.61 68.9682 163.61 69.1509C163.61 69.3336 163.537 69.5089 163.409 69.6381C163.28 69.7673 163.105 69.8399 162.923 69.8399Z" fill="#E6E6E6"/>
<path d="M162.923 84.5323H143.078C142.988 84.5325 142.899 84.5149 142.815 84.4803C142.732 84.4458 142.656 84.3951 142.592 84.3311C142.528 84.2671 142.477 84.1911 142.443 84.1074C142.408 84.0236 142.39 83.9339 142.39 83.8433C142.39 83.7527 142.408 83.6629 142.443 83.5792C142.477 83.4955 142.528 83.4195 142.592 83.3555C142.656 83.2915 142.732 83.2408 142.815 83.2062C142.899 83.1717 142.988 83.1541 143.078 83.1543H162.923C163.105 83.1548 163.279 83.2275 163.407 83.3567C163.536 83.4859 163.608 83.6609 163.608 83.8433C163.608 84.0257 163.536 84.2007 163.407 84.3299C163.279 84.459 163.105 84.5318 162.923 84.5323Z" fill="#E6E6E6"/>
<path d="M170.981 77.191H135.02C134.838 77.191 134.663 77.1184 134.535 76.9892C134.406 76.86 134.333 76.6847 134.333 76.502C134.333 76.3192 134.406 76.144 134.535 76.0148C134.663 75.8856 134.838 75.813 135.02 75.813H170.981C171.163 75.813 171.338 75.8856 171.467 76.0148C171.596 76.144 171.668 76.3192 171.668 76.502C171.668 76.6847 171.596 76.86 171.467 76.9892C171.338 77.1184 171.163 77.191 170.981 77.191Z" fill="#E6E6E6"/>
<path d="M171.349 90.5064H158.357C158.267 90.5064 158.178 90.4886 158.095 90.454C158.011 90.4193 157.936 90.3686 157.872 90.3046C157.808 90.2406 157.758 90.1647 157.723 90.0811C157.689 89.9975 157.671 89.9079 157.671 89.8174C157.671 89.7269 157.689 89.6373 157.723 89.5537C157.758 89.4702 157.808 89.3942 157.872 89.3302C157.936 89.2662 158.011 89.2155 158.095 89.1809C158.178 89.1462 158.267 89.1284 158.357 89.1284H171.349C171.531 89.1284 171.705 89.201 171.834 89.3302C171.963 89.4594 172.035 89.6347 172.035 89.8174C172.035 90.0001 171.963 90.1754 171.834 90.3046C171.705 90.4338 171.531 90.5064 171.349 90.5064Z" fill="#E6E6E6"/>
<path d="M259.097 68.2703H245.924C245.583 68.2699 245.255 68.1335 245.013 67.8909C244.772 67.6484 244.636 67.3196 244.635 66.9766V53.9187C244.636 53.5757 244.772 53.2469 245.013 53.0043C245.255 52.7618 245.583 52.6254 245.924 52.625H259.097C259.439 52.6254 259.767 52.7618 260.009 53.0043C260.25 53.2469 260.386 53.5757 260.387 53.9187V66.9766C260.386 67.3196 260.25 67.6484 260.009 67.8909C259.767 68.1335 259.439 68.2699 259.097 68.2703Z" fill="#F2F2F2"/>
<path d="M261.291 69.3709H248.118C247.776 69.3705 247.448 69.2341 247.207 68.9915C246.965 68.749 246.829 68.4202 246.829 68.0772V55.0193C246.829 54.6763 246.965 54.3475 247.207 54.1049C247.448 53.8624 247.776 53.726 248.118 53.7256H261.291C261.632 53.726 261.96 53.8624 262.202 54.1049C262.444 54.3475 262.58 54.6763 262.58 55.0193V68.0772C262.58 68.4202 262.444 68.749 262.202 68.9915C261.96 69.2341 261.633 69.3705 261.291 69.3709Z" fill="#F2F2F2"/>
<path d="M246.201 53.0103C245.887 53.0103 245.587 53.1351 245.366 53.3574C245.144 53.5797 245.02 53.8812 245.02 54.1956V66.6993C245.02 67.0137 245.144 67.3152 245.366 67.5375C245.587 67.7598 245.887 67.8846 246.201 67.8846H254.256C255.78 67.8846 257.242 67.277 258.319 66.1955C259.397 65.1139 260.003 63.647 260.003 62.1175V54.1956C260.003 53.8812 259.878 53.5797 259.657 53.3574C259.435 53.1351 259.135 53.0103 258.821 53.0103H246.201Z" fill="white"/>
<path d="M256.039 56.8054H248.955C248.89 56.8054 248.828 56.7795 248.782 56.7333C248.736 56.6872 248.71 56.6247 248.71 56.5594C248.71 56.4942 248.736 56.4316 248.782 56.3855C248.828 56.3394 248.89 56.3135 248.955 56.3135H256.039C256.104 56.3135 256.166 56.3394 256.212 56.3855C256.258 56.4316 256.284 56.4942 256.284 56.5594C256.284 56.6247 256.258 56.6872 256.212 56.7333C256.166 56.7795 256.104 56.8054 256.039 56.8054Z" fill="#F2F2F2"/>
<path d="M256.039 62.05H248.955C248.89 62.05 248.828 62.0241 248.782 61.978C248.736 61.9318 248.71 61.8693 248.71 61.8041C248.71 61.7388 248.736 61.6763 248.782 61.6301C248.828 61.584 248.89 61.5581 248.955 61.5581H256.039C256.104 61.5581 256.166 61.584 256.212 61.6301C256.258 61.6763 256.284 61.7388 256.284 61.8041C256.284 61.8693 256.258 61.9318 256.212 61.978C256.166 62.0241 256.104 62.05 256.039 62.05Z" fill="#F2F2F2"/>
<path d="M258.915 59.4294H246.079C246.014 59.4294 245.951 59.4035 245.905 59.3574C245.859 59.3112 245.833 59.2487 245.833 59.1835C245.833 59.1182 245.859 59.0557 245.905 59.0095C245.951 58.9634 246.014 58.9375 246.079 58.9375H258.915C258.98 58.9375 259.043 58.9634 259.089 59.0095C259.135 59.0557 259.161 59.1182 259.161 59.1835C259.161 59.2487 259.135 59.3112 259.089 59.3574C259.043 59.4035 258.98 59.4294 258.915 59.4294Z" fill="#F2F2F2"/>
<path d="M259.047 64.1823H254.409C254.344 64.1823 254.282 64.1564 254.236 64.1103C254.19 64.0642 254.164 64.0016 254.164 63.9364C254.164 63.8712 254.19 63.8086 254.236 63.7625C254.282 63.7164 254.344 63.6904 254.409 63.6904H259.047C259.112 63.6904 259.174 63.7164 259.22 63.7625C259.266 63.8086 259.292 63.8712 259.292 63.9364C259.292 64.0016 259.266 64.0642 259.22 64.1103C259.174 64.1564 259.112 64.1823 259.047 64.1823Z" fill="#F2F2F2"/>
<path d="M108.09 245.367C107.886 245.376 107.684 245.323 107.511 245.213C107.339 245.103 107.204 244.943 107.125 244.754C107.046 244.565 107.028 244.356 107.071 244.156C107.114 243.956 107.218 243.774 107.368 243.635L107.436 243.362C107.427 243.341 107.418 243.319 107.409 243.297C107.204 242.81 106.859 242.395 106.419 242.103C105.979 241.812 105.464 241.658 104.936 241.66C104.409 241.662 103.895 241.82 103.457 242.114C103.019 242.409 102.678 242.827 102.476 243.316C101.669 245.266 100.642 247.219 100.389 249.281C100.278 250.192 100.325 251.116 100.528 252.011C98.6328 247.863 97.6488 243.354 97.6425 238.791C97.6421 237.646 97.7055 236.502 97.8324 235.364C97.9373 234.431 98.0827 233.504 98.2689 232.585C99.2846 227.595 101.465 222.918 104.632 218.938C106.165 218.098 107.404 216.808 108.184 215.24C108.466 214.676 108.665 214.075 108.776 213.454C108.603 213.476 108.124 210.834 108.254 210.672C108.013 210.305 107.582 210.123 107.319 209.765C106.01 207.984 104.207 208.295 103.266 210.715C101.255 211.733 101.236 213.422 102.469 215.046C103.254 216.08 103.362 217.478 104.051 218.585C103.98 218.676 103.906 218.764 103.836 218.855C102.54 220.526 101.411 222.321 100.465 224.214C100.695 222.094 100.42 219.949 99.6634 217.956C98.8962 216.099 97.4583 214.535 96.192 212.929C95.8571 212.498 95.4023 212.176 94.885 212.004C94.3678 211.832 93.8114 211.818 93.2861 211.963C92.7608 212.109 92.2903 212.407 91.9339 212.821C91.5776 213.234 91.3514 213.745 91.284 214.287C91.2814 214.311 91.2789 214.334 91.2764 214.358C91.4645 214.465 91.6486 214.578 91.8288 214.697C92.0551 214.849 92.2304 215.066 92.3319 215.319C92.4333 215.573 92.4561 215.851 92.3972 216.118C92.3383 216.384 92.2006 216.627 92.0019 216.814C91.8033 217 91.5531 217.122 91.2842 217.164L91.2566 217.168C91.3236 217.849 91.4421 218.523 91.6109 219.185C89.9864 225.489 93.4936 227.785 98.5013 227.889C98.6118 227.945 98.7196 228.002 98.8301 228.056C97.8792 230.761 97.2828 233.577 97.0558 236.436C96.9272 238.122 96.9348 239.816 97.0784 241.502L97.0699 241.442C96.7071 239.568 95.711 237.877 94.2497 236.655C92.0794 234.866 89.0132 234.207 86.6718 232.769C86.4229 232.609 86.1336 232.523 85.8379 232.522C85.5422 232.521 85.2524 232.606 85.0028 232.765C84.7532 232.924 84.5542 233.151 84.4291 233.42C84.3041 233.689 84.2583 233.988 84.2971 234.282L84.3067 234.345C84.6557 234.488 84.9956 234.652 85.3242 234.837C85.5123 234.944 85.6964 235.057 85.8766 235.176C86.1029 235.328 86.2782 235.545 86.3797 235.798C86.4811 236.052 86.5039 236.33 86.445 236.597C86.3861 236.863 86.2484 237.106 86.0497 237.293C85.8511 237.479 85.6009 237.602 85.3319 237.643L85.3044 237.648C85.2846 237.65 85.2675 237.653 85.2477 237.656C85.8441 239.085 86.6811 240.4 87.7221 241.544C88.7379 247.048 93.1005 247.57 97.7672 245.967H97.77C98.2821 248.2 99.0239 250.373 99.9837 252.452H107.892C107.92 252.364 107.945 252.273 107.971 252.185C107.239 252.231 106.504 252.187 105.783 252.054C106.37 251.332 106.956 250.603 107.543 249.881C107.556 249.867 107.568 249.853 107.58 249.838C107.877 249.469 108.178 249.102 108.476 248.732L108.476 248.731C108.492 247.598 108.362 246.467 108.09 245.367Z" fill="#F2F2F2"/>
<path d="M2.3126e-06 252.476C-0.000202219 252.545 0.013162 252.613 0.0393353 252.677C0.0655085 252.741 0.10397 252.799 0.152506 252.847C0.201043 252.896 0.258698 252.935 0.322152 252.961C0.385606 252.987 0.453607 253 0.522246 253H111.675C111.814 253 111.946 252.945 112.044 252.847C112.142 252.748 112.197 252.615 112.197 252.476C112.197 252.337 112.142 252.204 112.044 252.106C111.946 252.007 111.814 251.952 111.675 251.952H0.522246C0.453608 251.952 0.385605 251.965 0.322152 251.992C0.258699 252.018 0.201049 252.056 0.152513 252.105C0.103977 252.154 0.0655161 252.212 0.039342 252.275C0.0131679 252.339 -0.000199889 252.407 2.3126e-06 252.476Z" fill="#CCCCCC"/>
<path d="M47.6064 30.6897L50.2438 30.5532C49.3725 30.6968 48.4879 30.7426 47.6064 30.6897Z" fill="#F2F2F2"/>
<path d="M63.3214 41.4086L62.887 41.9635L61.7197 43.4519L51.6396 56.3153L36.9956 41.2721L37.5793 40.8053L40.6862 34.1776L56.6467 33.0767L61.4212 40.6335L63.3214 41.4086Z" fill="#3F3D56"/>
</g>
<defs>
<clipPath id="clip0_66_5390">
<rect width="358" height="253" fill="white"/>
</clipPath>
</defs>
</svg>
