<svg width="25" height="25" viewBox="0 0 25 25" fill="none" xmlns="http://www.w3.org/2000/svg">
<path d="M4.85352 19.1768V17.1768H6.85352V10.1768C6.85352 8.79342 7.27018 7.56842 8.10352 6.50176C8.93685 5.41842 10.0202 4.71009 11.3535 4.37676V3.67676C11.3535 3.26009 11.4952 2.91009 11.7785 2.62676C12.0785 2.32676 12.4368 2.17676 12.8535 2.17676C13.2702 2.17676 13.6202 2.32676 13.9035 2.62676C14.2035 2.91009 14.3535 3.26009 14.3535 3.67676V4.37676C15.6868 4.71009 16.7702 5.41842 17.6035 6.50176C18.4368 7.56842 18.8535 8.79342 18.8535 10.1768V17.1768H20.8535V19.1768H4.85352ZM12.8535 22.1768C12.3035 22.1768 11.8285 21.9851 11.4285 21.6018C11.0452 21.2018 10.8535 20.7268 10.8535 20.1768H14.8535C14.8535 20.7268 14.6535 21.2018 14.2535 21.6018C13.8702 21.9851 13.4035 22.1768 12.8535 22.1768ZM8.85352 17.1768H16.8535V10.1768C16.8535 9.07676 16.4618 8.13509 15.6785 7.35176C14.8952 6.56842 13.9535 6.17676 12.8535 6.17676C11.7535 6.17676 10.8118 6.56842 10.0285 7.35176C9.24518 8.13509 8.85352 9.07676 8.85352 10.1768V17.1768Z" fill="#1D1B20"/>
<circle cx="18.8535" cy="4.17676" r="3" fill="#31406F"/>
</svg>
