<svg width="26" height="21" viewBox="0 0 26 21" fill="none" xmlns="http://www.w3.org/2000/svg">
<path d="M1 19.393V18.3087C1 14.117 4.39805 10.719 8.58975 10.719C12.7815 10.719 16.1795 14.117 16.1795 18.3087V19.393" stroke="black" stroke-width="1.62637" stroke-linecap="round"/>
<path d="M14.011 12.8876C14.011 9.89351 16.4382 7.46631 19.4322 7.46631C22.4263 7.46631 24.8535 9.89351 24.8535 12.8876V13.4297" stroke="black" stroke-width="1.62637" stroke-linecap="round"/>
<path d="M8.58981 10.7189C10.985 10.7189 12.9268 8.77714 12.9268 6.38192C12.9268 3.98666 10.985 2.04492 8.58981 2.04492C6.19455 2.04492 4.25281 3.98666 4.25281 6.38192C4.25281 8.77714 6.19455 10.7189 8.58981 10.7189Z" stroke="black" stroke-width="1.62637" stroke-linecap="round" stroke-linejoin="round"/>
<path d="M19.4322 7.46619C21.2287 7.46619 22.6849 6.00988 22.6849 4.21344C22.6849 2.417 21.2287 0.960693 19.4322 0.960693C17.6357 0.960693 16.1794 2.417 16.1794 4.21344C16.1794 6.00988 17.6357 7.46619 19.4322 7.46619Z" stroke="black" stroke-width="1.62637" stroke-linecap="round" stroke-linejoin="round"/>
</svg>
